<svg width="16" height="17" viewBox="0 0 16 17" fill="none" xmlns="http://www.w3.org/2000/svg">
<path d="M15.7 15.0024L12.6 11.9024C13.5 10.7024 14 9.30239 14 7.70239C14 3.80239 10.9 0.702393 7 0.702393C3.1 0.702393 0 3.80239 0 7.70239C0 11.6024 3.1 14.7024 7 14.7024C8.6 14.7024 10 14.2024 11.2 13.3024L14.3 16.4024C14.5 16.6024 14.7 16.7024 15 16.7024C15.6 16.7024 16 16.3024 16 15.7024C16 15.5024 15.9 15.2024 15.7 15.0024ZM2 7.70239C2 4.90239 4.2 2.70239 7 2.70239C9.8 2.70239 12 4.90239 12 7.70239C12 10.5024 9.8 12.7024 7 12.7024C4.2 12.7024 2 10.5024 2 7.70239Z" fill="black"/>
</svg>
